<svg width="29" height="29" viewBox="0 0 29 29" fill="none" xmlns="http://www.w3.org/2000/svg">
<path d="M11.7812 9.36457C11.7812 8.86407 11.3755 8.45832 10.875 8.45832H9.44429H7.61065C8.05472 5.04929 10.9699 2.41666 14.5 2.41666C18.03 2.41666 20.9452 5.04929 21.3893 8.45832H19.5557H16.3125C15.812 8.45832 15.4062 8.86407 15.4062 9.36457C15.4062 9.86508 15.812 10.2708 16.3125 10.2708H19.6354H21.4479V12.0833H19.6354H16.3125C15.812 12.0833 15.4062 12.4891 15.4062 12.9896C15.4062 13.4901 15.812 13.8958 16.3125 13.8958H19.5557H21.3893C20.9452 17.3049 18.03 19.9375 14.5 19.9375C10.9699 19.9375 8.05472 17.3049 7.61065 13.8958H9.44429H10.875C11.3755 13.8958 11.7812 13.4901 11.7812 12.9896C11.7812 12.4891 11.3755 12.0833 10.875 12.0833H9.36458H7.55208V10.2708H9.36458H10.875C11.3755 10.2708 11.7812 9.86508 11.7812 9.36457Z" fill="white"/>
<path fill-rule="evenodd" clip-rule="evenodd" d="M4.83333 10.875C5.33383 10.875 5.73958 11.2807 5.73958 11.7812V12.9896C5.73958 17.8279 9.66176 21.75 14.5 21.75C19.3383 21.75 23.2604 17.8279 23.2604 12.9896V11.7812C23.2604 11.2807 23.6662 10.875 24.1667 10.875C24.6672 10.875 25.0729 11.2807 25.0729 11.7812V12.9896C25.0729 18.5235 20.8213 23.0645 15.4062 23.5242V26.2812C15.4062 26.7817 15.0005 27.1875 14.5 27.1875C13.9995 27.1875 13.5937 26.7817 13.5937 26.2812V23.5242C8.17872 23.0645 3.92708 18.5235 3.92708 12.9896V11.7812C3.92708 11.2807 4.33282 10.875 4.83333 10.875Z" fill="white"/>
</svg>
