<svg width="41" height="41" viewBox="0 0 41 41" fill="none" xmlns="http://www.w3.org/2000/svg">
<path d="M5.07616 31.246C4.23141 30.4013 3.59784 29.4057 3.17546 28.2592C2.81342 27.2335 2.81342 26.1775 3.17546 25.0914C3.56767 24.0354 4.06547 23.2058 4.66887 22.6024C5.69464 21.5766 6.97687 20.8676 8.51553 20.4754C10.1145 20.0832 11.789 19.8569 13.5388 19.7966C15.2887 19.7362 16.9178 19.7362 18.4263 19.7966C18.4565 18.2579 18.7582 16.8098 19.3314 15.4521C19.965 14.0945 20.7343 12.9631 21.6394 12.058C22.5445 11.1529 23.4949 10.5646 24.4905 10.2931C25.8783 9.93102 27.3566 10.0819 28.9255 10.7456C30.5546 11.4093 31.9575 12.3295 33.1342 13.5062C33.6772 14.0492 34.1449 14.6074 34.5371 15.1806C35.4422 13.7928 35.5628 12.3144 34.8991 10.7456L35.1254 10.5193C35.4572 10.1875 35.6835 10.2629 35.8042 10.7456C36.1361 11.8619 36.2266 12.8575 36.0757 13.7324C35.9249 14.6074 35.593 15.3918 35.0801 16.0857C35.5327 17.0209 35.7439 17.926 35.7137 18.801C35.7439 19.0725 35.7589 19.2384 35.7589 19.2988C35.7589 19.3591 35.6383 19.4194 35.3969 19.4798C35.3366 19.1178 35.2008 18.7406 34.9896 18.3484C34.7784 17.9562 34.522 17.5489 34.2203 17.1265C33.2247 18.0618 31.9877 18.7859 30.5094 19.2988C29.0914 19.8117 27.6432 20.1737 26.1649 20.3849C24.7168 20.6262 23.4647 20.7922 22.4088 20.8827C21.383 20.943 20.7947 20.9883 20.6438 21.0185C21.0059 23.6734 20.9304 25.8909 20.4176 27.6709C19.9348 29.4811 19.1806 30.8991 18.1548 31.9249C16.9782 33.1015 15.5753 33.8105 13.9461 34.0518C12.3471 34.3234 10.7481 34.2027 9.1491 33.6898C7.58026 33.2071 6.22262 32.3925 5.07616 31.246ZM20.5986 19.7966C21.8054 19.7362 23.2234 19.6759 24.8525 19.6156C26.5119 19.525 28.0204 19.2535 29.378 18.801C31.1882 18.1372 32.6062 17.2925 33.632 16.2667C33.4208 15.9952 33.1794 15.7236 32.9079 15.4521C32.6967 15.1806 32.4704 14.9241 32.2291 14.6828C31.1429 13.5967 29.9211 12.7066 28.5634 12.0127C27.2661 11.3188 26.0593 11.1378 24.943 11.4697C24.4 11.6507 23.8871 11.9826 23.4044 12.4653C22.62 13.2497 21.9713 14.3207 21.4584 15.6784C21.0059 17.036 20.7193 18.4088 20.5986 19.7966ZM6.25279 30.522C7.00703 31.2762 7.92722 31.8344 9.01333 32.1964C10.1296 32.5886 11.2459 32.7093 12.3622 32.5584C13.5086 32.3774 14.5495 31.8193 15.4848 30.884C16.3597 30.0091 17.0536 28.7721 17.5665 27.1731C18.1397 25.5741 18.3962 23.5376 18.3358 21.0637C17.8229 21.0335 17.0385 21.0034 15.9826 20.9732C14.9568 20.9732 13.8254 21.0486 12.5885 21.1995C11.3817 21.3805 10.19 21.6671 9.01333 22.0593C7.86688 22.4817 6.91653 23.07 6.16228 23.8243C5.04599 24.9405 4.56327 26.1172 4.71412 27.3541C4.89514 28.6213 5.40803 29.6772 6.25279 30.522Z" fill="white"/>
</svg>
