<svg width="30" height="32" viewBox="0 0 30 32" fill="none" xmlns="http://www.w3.org/2000/svg">
<path fill-rule="evenodd" clip-rule="evenodd" d="M4.18978 2.9166C4.53616 2.62794 5.00443 2.58577 5.38935 2.80856L24.3752 13.798C24.7408 14.0096 24.9695 14.4249 24.9695 14.8772C24.9695 15.3295 24.7408 15.7448 24.3752 15.9564L5.38935 26.9458C5.00443 27.1686 4.53616 27.1264 4.18978 26.8378C3.8434 26.5491 3.6821 26.0666 3.77658 25.6018L5.95637 14.8772L3.77658 4.1526C3.6821 3.68775 3.8434 3.20527 4.18978 2.9166ZM7.9963 16.0983L6.48166 23.5503L19.3562 16.0983H7.9963ZM19.3562 13.6561H7.9963L6.48166 6.20405L19.3562 13.6561Z" fill="white"/>
</svg>
